# Blender v2.78 (sub 0) OBJ File: 'endlessrunner.blend'
# www.blender.org
mtllib roof1.mtl
o roof1_Cube
v 7.916208 0.233353 7.445397
v -8.085475 0.233353 7.445397
v 7.916208 4.459850 0.133578
v -8.085475 4.459850 0.133578
v 7.916208 0.233353 -7.445397
v -8.085475 0.233353 -7.445397
v 7.916208 4.459850 -0.133578
v -8.085475 4.459850 -0.133578
v 7.940373 0.167726 7.065094
v 7.940373 0.651147 7.296125
v 7.940373 -0.063306 7.548516
v -8.103677 0.153666 7.025293
v -8.103677 0.690948 7.282065
v -8.103677 -0.103106 7.562576
v -5.600176 -0.101447 7.561990
v -5.040270 -0.101447 7.561990
v -2.067626 -0.101447 7.561990
v -1.464766 -0.101447 7.561990
v 1.482129 -0.101447 7.561990
v 2.093533 -0.101447 7.561990
v 5.023073 -0.101447 7.561990
v 5.660644 -0.101447 7.561990
v 5.660643 0.154252 7.026953
v 5.023073 0.154252 7.026953
v 2.093533 0.154252 7.026953
v 1.482129 0.154252 7.026953
v -1.464766 0.154252 7.026953
v -2.067626 0.154252 7.026953
v -5.040270 0.154252 7.026953
v -5.600176 0.154252 7.026953
v -5.600176 0.689289 7.282652
v -5.040270 0.689289 7.282652
v -2.067626 0.689289 7.282652
v -1.464766 0.689289 7.282652
v 1.482129 0.689289 7.282652
v 2.093533 0.689289 7.282652
v 5.023073 0.689289 7.282652
v 5.660644 0.689289 7.282652
v 7.940373 3.787623 0.566575
v 7.940373 4.784997 0.566575
v -8.103677 3.787623 0.566575
v -8.103677 4.784997 0.566575
v 7.940374 2.431974 3.324815
v 7.940374 2.909355 3.588075
v 7.940374 2.168715 3.802195
v 7.940374 2.646095 4.065455
v -8.103677 2.431974 3.324815
v -8.103677 2.909355 3.588075
v -8.103677 2.168715 3.802195
v -8.103677 2.646095 4.065455
v -8.605824 0.153666 7.025293
v -8.605824 -0.103106 7.562576
v -8.605824 2.431974 3.324815
v -8.605824 2.168715 3.802195
v 8.419952 0.167726 7.065094
v 8.419952 -0.063306 7.548516
v 8.419954 2.431974 3.324815
v 8.419954 2.168715 3.802195
v 7.940373 0.167726 -7.065094
v 7.940373 0.651147 -7.296125
v 7.940373 -0.063306 -7.548516
v -8.103677 0.153666 -7.025293
v -8.103677 0.690948 -7.282065
v -8.103677 -0.103106 -7.562576
v -5.600176 -0.101447 -7.561990
v -5.040270 -0.101447 -7.561990
v -2.067626 -0.101447 -7.561990
v -1.464766 -0.101447 -7.561990
v 1.482129 -0.101447 -7.561990
v 2.093533 -0.101447 -7.561990
v 5.023073 -0.101447 -7.561990
v 5.660644 -0.101447 -7.561990
v 5.660643 0.154252 -7.026953
v 5.023073 0.154252 -7.026953
v 2.093533 0.154252 -7.026953
v 1.482129 0.154252 -7.026953
v -1.464766 0.154252 -7.026953
v -2.067626 0.154252 -7.026953
v -5.040270 0.154252 -7.026953
v -5.600176 0.154252 -7.026953
v -5.600176 0.689289 -7.282652
v -5.040270 0.689289 -7.282652
v -2.067626 0.689289 -7.282652
v -1.464766 0.689289 -7.282652
v 1.482129 0.689289 -7.282652
v 2.093533 0.689289 -7.282652
v 5.023073 0.689289 -7.282652
v 5.660644 0.689289 -7.282652
v 7.940373 3.787623 -0.566575
v 7.940373 4.784997 -0.566575
v -8.103677 3.787623 -0.566575
v -8.103677 4.784997 -0.566575
v 7.940374 2.431974 -3.324815
v 7.940374 2.909355 -3.588075
v 7.940374 2.168715 -3.802195
v 7.940374 2.646095 -4.065455
v -8.103677 2.431974 -3.324815
v -8.103677 2.909355 -3.588075
v -8.103677 2.168715 -3.802195
v -8.103677 2.646095 -4.065455
v 5.660643 4.229052 0.000000
v 5.023073 4.229052 0.000000
v 2.093533 4.229052 0.000000
v 1.482129 4.229052 0.000000
v -1.464766 4.229052 0.000000
v -2.067626 4.229052 0.000000
v -5.040270 4.229052 0.000000
v -5.600176 4.229052 0.000000
v -5.600176 4.764089 0.000000
v -5.040270 4.764089 0.000000
v -2.067626 4.764089 0.000000
v -1.464766 4.764089 0.000000
v 1.482129 4.764089 0.000000
v 2.093533 4.764089 0.000000
v 5.023073 4.764089 0.000000
v 5.660644 4.764089 0.000000
v 7.940373 3.787623 0.000000
v -8.103677 3.787623 0.000000
v -8.102785 4.157599 0.000000
v -8.102785 4.760430 0.000000
v -8.605824 0.153666 -7.025293
v -8.605824 -0.103106 -7.562576
v -8.605824 2.431974 -3.324815
v -8.605824 2.168715 -3.802195
v -8.604931 4.165963 0.000000
v 7.922595 4.287528 0.000000
v 7.922595 4.764908 0.000000
v 8.419952 0.167726 -7.065094
v 8.419952 -0.063306 -7.548516
v 8.419954 2.431974 -3.324815
v 8.419954 2.168715 -3.802195
v 8.402174 4.287528 0.000000
vn 0.0125 0.4312 -0.9022
vn 0.0005 -0.9023 -0.4312
vn 0.0125 -0.9022 -0.4312
vn 0.0000 -0.9023 -0.4312
vn 0.0005 0.4312 -0.9023
vn 1.0000 0.0000 0.0000
vn 0.0000 0.4312 -0.9023
vn 0.0000 -0.8651 -0.5016
vn -1.0000 0.0000 0.0000
vn 0.0000 0.0000 1.0000
vn 0.0000 -1.0000 0.0000
vn 0.0000 -0.4829 0.8757
vn 0.0000 0.4829 -0.8757
vn 0.0000 -0.8757 -0.4829
vn 0.0000 -0.8525 -0.5228
vn 0.0000 -0.8732 -0.4873
vn 1.0000 -0.0001 0.0002
vn -0.0074 -0.8871 -0.4615
vn 0.0000 -0.8479 -0.5301
vn -1.0000 -0.0012 0.0045
vn 0.0125 0.4312 0.9022
vn 0.0005 -0.9023 0.4312
vn 0.0125 -0.9022 0.4312
vn 0.0000 -0.9023 0.4312
vn 0.0005 0.4312 0.9023
vn 0.0000 0.4312 0.9023
vn 0.0000 -0.8651 0.5016
vn 0.0000 0.0000 -1.0000
vn 0.0000 -0.4829 -0.8757
vn 0.0000 0.4829 0.8757
vn 0.0000 -0.8757 0.4829
vn 0.0000 -0.8525 0.5228
vn 0.0000 -0.8732 0.4873
vn 1.0000 -0.0001 -0.0002
vn -0.0074 -0.8871 0.4615
vn 0.0000 -0.8479 0.5301
vn -1.0000 -0.0012 -0.0045
vn 0.0000 -0.8658 -0.5004
vn 0.0000 -0.8658 0.5004
usemtl roofglassholder
s off
f 23//1 38//1 10//1 9//1
f 15//2 14//2 12//2 30//2
f 11//3 22//3 23//3 9//3
f 22//4 21//4 24//4 23//4
f 21//4 20//4 25//4 24//4
f 20//4 19//4 26//4 25//4
f 19//4 18//4 27//4 26//4
f 18//4 17//4 28//4 27//4
f 17//4 16//4 29//4 28//4
f 16//4 15//4 30//4 29//4
f 12//5 13//5 31//5 30//5
f 32//6 29//6 107//6 110//6
f 29//7 32//7 33//7 28//7
f 25//8 26//8 104//8 103//8
f 27//7 34//7 35//7 26//7
f 30//9 31//9 109//9 108//9
f 25//7 36//7 37//7 24//7
f 38//6 23//6 101//6 116//6
f 28//9 33//9 111//9 106//9
f 27//8 28//8 106//8 105//8
f 34//6 27//6 105//6 112//6
f 26//9 35//9 113//9 104//9
f 29//8 30//8 108//8 107//8
f 36//6 25//6 103//6 114//6
f 24//9 37//9 115//9 102//9
f 23//8 24//8 102//8 101//8
f 39//10 40//10 42//10 41//10
f 39//11 41//11 118//11 117//11
f 45//12 46//12 50//12 49//12
f 47//13 48//13 44//13 43//13
f 45//14 49//14 47//14 43//14
f 11//4 9//4 55//4 56//4
f 9//15 45//15 58//15 55//15
f 43//16 126//16 132//16 57//16
f 12//6 49//6 50//6 13//6
f 48//17 47//17 119//17 120//17
f 12//4 14//4 52//4 51//4
f 119//18 47//18 53//18 125//18
f 49//19 12//19 51//19 54//19
f 47//14 49//14 54//14 53//14
f 10//9 46//9 45//9 9//9
f 43//20 44//20 127//20 126//20
f 45//14 43//14 57//14 58//14
f 73//21 59//21 60//21 88//21
f 65//22 80//22 62//22 64//22
f 61//23 59//23 73//23 72//23
f 72//24 73//24 74//24 71//24
f 71//24 74//24 75//24 70//24
f 70//24 75//24 76//24 69//24
f 69//24 76//24 77//24 68//24
f 68//24 77//24 78//24 67//24
f 67//24 78//24 79//24 66//24
f 66//24 79//24 80//24 65//24
f 62//25 80//25 81//25 63//25
f 82//6 110//6 107//6 79//6
f 79//26 78//26 83//26 82//26
f 75//27 103//27 104//27 76//27
f 77//26 76//26 85//26 84//26
f 80//9 108//9 109//9 81//9
f 75//26 74//26 87//26 86//26
f 88//6 116//6 101//6 73//6
f 78//9 106//9 111//9 83//9
f 77//27 105//27 106//27 78//27
f 84//6 112//6 105//6 77//6
f 76//9 104//9 113//9 85//9
f 79//27 107//27 108//27 80//27
f 86//6 114//6 103//6 75//6
f 74//9 102//9 115//9 87//9
f 73//27 101//27 102//27 74//27
f 89//28 91//28 92//28 90//28
f 89//11 117//11 118//11 91//11
f 95//29 99//29 100//29 96//29
f 97//30 93//30 94//30 98//30
f 95//31 93//31 97//31 99//31
f 61//24 129//24 128//24 59//24
f 59//32 128//32 131//32 95//32
f 93//33 130//33 132//33 126//33
f 62//6 63//6 100//6 99//6
f 98//34 120//34 119//34 97//34
f 62//24 121//24 122//24 64//24
f 119//35 125//35 123//35 97//35
f 99//36 124//36 121//36 62//36
f 97//31 123//31 124//31 99//31
f 60//9 59//9 95//9 96//9
f 93//37 126//37 127//37 94//37
f 95//31 131//31 130//31 93//31
usemtl glass
f 1//38 2//38 4//38 3//38
f 5//39 7//39 8//39 6//39
